<?xml version="1.0" standalone="no"?>
<!DOCTYPE svg PUBLIC "-//W3C//DTD SVG 20010904//EN"
 "http://www.w3.org/TR/2001/REC-SVG-20010904/DTD/svg10.dtd">
<svg version="1.0" xmlns="http://www.w3.org/2000/svg"
 width="241.000000pt" height="93.000000pt" viewBox="0 0 241.000000 93.000000"
 preserveAspectRatio="xMidYMid meet">
<metadata>
Created by potrace 1.16, written by Peter Selinger 2001-2019
</metadata>
<g transform="translate(0.000000,93.000000) scale(0.100000,-0.100000)"
fill="#000000" stroke="none">
<path d="M0 465 l0 -465 1205 0 1205 0 0 465 0 465 -1205 0 -1205 0 0 -465z
m550 272 c29 -14 39 -59 18 -84 -19 -23 -85 -50 -142 -58 -49 -8 -47 -25 2
-25 36 0 92 -30 92 -49 0 -46 -103 -101 -188 -101 -79 0 -104 45 -57 105 24
32 24 33 4 38 -32 8 -17 31 24 38 19 3 52 20 72 37 40 36 92 47 62 14 -25 -27
-21 -34 16 -27 42 9 77 32 77 50 0 29 -151 13 -190 -20 -17 -14 -102 -37 -109
-29 -9 9 31 72 54 84 65 35 218 51 265 27z m600 -18 c0 -7 -46 -59 -102 -117
-57 -58 -89 -96 -73 -84 125 92 147 100 153 51 3 -25 -26 -59 -76 -89 -14 -8
-15 -11 -3 -19 16 -11 59 7 80 33 13 15 31 13 31 -3 0 -13 -97 -81 -116 -81
-10 0 -31 12 -46 27 l-28 27 -16 -22 c-20 -29 -32 -28 -40 3 -7 29 -20 28 -87
-6 -50 -25 -72 -24 -95 6 -18 23 -23 24 -53 13 -19 -6 -43 -17 -54 -25 -44
-30 -95 -3 -95 52 0 57 65 115 128 115 26 0 31 -4 36 -35 4 -19 2 -44 -4 -55
-19 -35 7 -22 40 20 37 47 76 70 118 70 26 0 31 -4 36 -35 4 -19 2 -44 -4 -55
-7 -13 -7 -20 0 -20 5 0 32 31 60 69 78 108 210 208 210 160z m544 2 c8 -12
-42 -76 -118 -151 -36 -35 -66 -68 -66 -71 0 -4 30 13 66 37 37 25 72 43 78
41 22 -7 17 -40 -10 -68 -15 -16 -25 -31 -22 -35 14 -14 48 9 65 44 22 45 75
82 118 82 29 0 33 -4 39 -35 4 -19 2 -44 -4 -55 -22 -41 11 -18 91 65 45 47
88 85 95 85 27 0 23 -21 -12 -60 -38 -42 -36 -49 6 -25 79 45 93 -10 21 -89
l-26 -28 25 7 c14 4 35 17 47 28 32 29 42 13 12 -19 -37 -39 -73 -54 -133 -54
l-55 0 -27 -50 c-15 -28 -33 -50 -41 -50 -21 0 -15 52 10 90 13 19 34 53 47
75 l24 40 -37 -32 c-21 -18 -43 -33 -50 -33 -7 0 -29 -9 -50 -20 -47 -25 -65
-25 -92 0 l-22 21 -37 -22 c-57 -34 -88 -5 -50 49 23 33 8 27 -46 -18 -26 -22
-51 -40 -54 -40 -4 0 -10 9 -14 20 -7 19 -8 19 -44 -5 -51 -34 -90 -32 -130 6
l-32 30 62 61 c34 33 62 64 62 69 0 5 8 9 19 9 13 0 20 -10 25 -31 10 -52 7
-66 -20 -98 -14 -17 -22 -31 -17 -31 22 0 65 41 102 97 45 66 153 173 176 173
8 0 16 -4 19 -9z"/>
</g>
</svg>
